<?xml version="1.0" encoding="UTF-8" standalone="no"?>
<svg
   xmlns:dc="http://purl.org/dc/elements/1.1/"
   xmlns:cc="http://creativecommons.org/ns#"
   xmlns:rdf="http://www.w3.org/1999/02/22-rdf-syntax-ns#"
   xmlns:svg="http://www.w3.org/2000/svg"
   xmlns="http://www.w3.org/2000/svg"
   xmlns:sodipodi="http://sodipodi.sourceforge.net/DTD/sodipodi-0.dtd"
   xmlns:inkscape="http://www.inkscape.org/namespaces/inkscape"
   inkscape:version="1.0 (4035a4fb49, 2020-05-01)"
   sodipodi:docname="logo-ru12.svg"
   id="svg24"
   preserveAspectRatio="xMidYMid meet"
   viewBox="0 0 12000 12000"
   height="1200px"
   width="1200px"
   version="1.0">
  <metadata
     id="metadata30">
    <rdf:RDF>
      <cc:Work
         rdf:about="">
        <dc:format>image/svg+xml</dc:format>
        <dc:type
           rdf:resource="http://purl.org/dc/dcmitype/StillImage" />
        <dc:title></dc:title>
      </cc:Work>
    </rdf:RDF>
  </metadata>
  <defs
     id="defs28">
    <clipPath
       id="clipPath857"
       clipPathUnits="userSpaceOnUse">
      <rect
         y="3209.7563"
         x="3526.4023"
         height="4901.7578"
         width="4850.4775"
         id="rect859"
         style="fill:#800000;fill-opacity:0.267658;stroke-width:37.7953" />
    </clipPath>
  </defs>
  <sodipodi:namedview
     inkscape:current-layer="svg24"
     inkscape:window-maximized="0"
     inkscape:window-y="18"
     inkscape:window-x="0"
     inkscape:cy="607.73157"
     inkscape:cx="737.0716"
     inkscape:zoom="0.338822"
     showgrid="false"
     id="namedview26"
     inkscape:window-height="730"
     inkscape:window-width="1366"
     inkscape:pageshadow="2"
     inkscape:pageopacity="0"
     guidetolerance="10"
     gridtolerance="10"
     objecttolerance="10"
     borderopacity="1"
     bordercolor="#666666"
     pagecolor="#ffffff" />
  <g
     transform="matrix(0.99065033,0,0,0.99042113,111.98044,62.961417)"
     stroke="none"
     fill="#04c2ca"
     id="layer101">
    <path
       id="path2"
       d="M 0,6000 V 0 h 6000 6000 v 6000 6000 H 6000 0 Z" />
  </g>
  <g
     transform="matrix(2.4748706,0,0,2.4587293,-8712.691,-7836.2432)"
     clip-path="url(#clipPath857)"
     stroke="none"
     fill="#ffffff"
     id="layer102">
    <path
       id="path5"
       d="M 0,6000 V 0 h 6000 6000 v 6000 6000 H 6000 0 Z m 8350,1709 c 0,-3 -86,-91 -191,-195 -105,-104 -195,-197 -200,-206 -7,-13 -1,-34 23,-80 110,-215 158,-451 138,-673 -12,-122 -15,-137 -47,-245 -72,-241 -228,-453 -440,-597 -214,-146 -460,-214 -716,-199 -123,7 -159,14 -312,62 -109,34 -258,112 -328,170 -151,126 -249,247 -321,397 -82,170 -107,269 -113,459 -7,189 5,284 53,428 60,176 143,310 276,442 43,42 106,97 141,122 88,62 265,144 377,173 169,43 413,42 590,-3 66,-17 140,-44 158,-57 6,-5 12,-7 12,-3 0,3 36,-12 79,-34 44,-22 84,-40 91,-40 6,0 101,91 211,202 l 199,203 160,-160 c 88,-88 160,-163 160,-166 z M 5533,7334 c -2,-5 -19,-52 -39,-104 -30,-79 -68,-216 -90,-327 l -4,-23 -693,-2 -692,-3 -3,-40 c -6,-73 6,-105 66,-167 87,-92 279,-194 527,-280 72,-25 139,-48 150,-51 11,-3 72,-19 135,-36 63,-17 133,-33 155,-36 22,-4 49,-9 60,-12 11,-3 94,-16 185,-27 91,-12 165,-26 165,-31 3,-54 106,-281 176,-386 21,-31 35,-59 32,-63 -21,-20 -450,13 -633,50 -364,73 -604,147 -859,266 -57,26 -123,62 -148,78 -24,17 -47,30 -50,30 -14,0 -144,100 -202,154 -78,75 -160,191 -192,271 -23,58 -24,69 -27,402 l -3,343 978,3 c 1117,3 1009,4 1006,-9 z m 237,-2291 c 281,-48 536,-243 667,-508 68,-136 103,-336 84,-481 -55,-416 -323,-716 -726,-810 -55,-12 -103,-15 -220,-11 -133,4 -160,8 -244,35 -156,52 -283,133 -396,253 -82,87 -121,152 -196,324 -46,106 -59,365 -26,499 91,362 363,625 727,701 82,17 224,16 330,-2 z" />
    <path
       id="path7"
       d="m 6805,7316 c -126,-34 -218,-88 -311,-181 -123,-123 -182,-255 -191,-430 -9,-166 16,-272 96,-410 94,-161 260,-272 469,-311 124,-23 236,-12 363,37 100,39 159,78 245,166 283,288 233,803 -100,1029 -36,25 -131,75 -151,81 -5,1 -35,10 -65,19 -31,9 -103,17 -165,19 -89,2 -125,-1 -190,-19 z" />
    <path
       id="path9"
       d="m 5473,4541 c -239,-87 -349,-355 -239,-584 108,-224 393,-306 600,-173 140,90 202,214 194,383 -4,95 -30,168 -85,239 -39,52 -124,112 -190,135 -75,26 -208,25 -280,0 z m 232,-16 c 248,-64 371,-336 256,-564 -36,-70 -113,-144 -189,-179 -51,-24 -69,-27 -163,-27 -100,0 -108,2 -173,34 -79,41 -147,111 -185,191 -22,48 -25,69 -25,160 -1,93 2,111 26,163 52,110 168,204 281,227 66,12 108,11 172,-5 z" />
    <path
       id="path11"
       d="m 5357,4354 c -11,-11 -8,-21 7,-37 16,-15 152,-22 214,-11 27,5 32,11 30,28 -3,20 -9,21 -124,24 -66,1 -123,-1 -127,-4 z" />
    <path
       id="path13"
       d="m 5754,4288 c -30,-28 -54,-56 -54,-63 0,-6 -11,-25 -25,-41 -14,-16 -24,-36 -23,-44 5,-23 38,-24 54,-1 9,12 23,21 32,21 10,0 44,26 76,59 58,58 58,59 41,84 -28,43 -42,41 -101,-15 z" />
    <path
       id="path15"
       d="m 5395,4280 c -3,-5 0,-13 8,-16 24,-9 162,0 162,11 0,14 -161,19 -170,5 z" />
    <path
       id="path17"
       d="m 5524,4182 c -67,-62 -79,-79 -64,-97 21,-25 44,-17 93,33 50,51 58,75 29,91 -14,7 -26,2 -58,-27 z" />
    <path
       id="path19"
       d="m 5557,4102 -47,-48 38,-37 38,-37 47,48 c 26,26 47,51 47,54 0,10 -58,68 -68,68 -4,0 -29,-22 -55,-48 z" />
    <path
       id="path21"
       d="m 5647,4023 c -48,-50 -60,-86 -30,-97 27,-11 126,85 121,117 -5,39 -40,31 -91,-20 z" />
  </g>
</svg>
